<svg width="29" height="30" viewBox="0 0 29 30" fill="none" xmlns="http://www.w3.org/2000/svg">
<path d="M0.000133514 11.1282H2.24824V10.2587C1.56528 9.21602 1.16748 7.97055 1.16748 6.63378C1.16742 2.97585 4.14332 0 7.8012 0C11.3126 0 14.195 2.74246 14.4202 6.19785H16.331C18.6068 6.19785 20.7519 5.35071 22.4075 3.80643V1.90045H24.1548V7.08044C25.1197 7.32566 25.9977 7.84643 26.6815 8.59236C27.5544 9.54462 28.0352 10.7809 28.0352 12.0736C28.0352 13.3662 27.5544 14.6025 26.6815 15.5548C25.9977 16.3007 25.1197 16.8215 24.1548 17.0667V22.2197H22.4075V20.3155C20.7557 18.7872 18.6214 17.9492 16.358 17.9492H12.7788V21.3949H11.2408L13.5706 29.8512H7.67101L5.34128 21.3949H3.90434V17.2519L2.24824 15.5958V12.8754H0.000133514V11.1282ZM5.3253 16.2018H12.6876V11.1153C11.4742 12.4373 9.7329 13.2674 7.8012 13.2674C6.38624 13.2674 5.07361 12.8219 3.99553 12.0641V14.872L5.3253 16.2018ZM7.8012 1.74728C5.10678 1.74728 2.91476 3.9393 2.91476 6.63372C2.91476 9.32814 5.10678 11.5202 7.8012 11.5202C10.4956 11.5202 12.6876 9.32814 12.6876 6.63372C12.6876 3.9393 10.4956 1.74728 7.8012 1.74728ZM25.3935 14.374C25.9703 13.7448 26.2879 12.9278 26.2879 12.0735C26.2879 11.2192 25.9703 10.4022 25.3935 9.77299C25.0456 9.3935 24.6219 9.10233 24.1548 8.91413V15.2328C24.6218 15.0447 25.0456 14.7535 25.3935 14.374ZM22.4075 6.0476C21.221 6.87364 19.8864 7.44431 18.472 7.73104V16.4103C19.8858 16.693 21.2202 17.2597 22.4075 18.0809V6.0476ZM16.7247 16.2088V7.93726C16.5938 7.94199 14.4349 7.94513 14.4349 7.94513V16.2018C14.4349 16.2018 16.6027 16.2047 16.7247 16.2088ZM11.0315 19.6475V17.9491H5.65162V19.6475H11.0315ZM9.00195 28.1039H11.2768L9.4285 21.3949H7.15368L9.00195 28.1039Z" fill="#2760B7"/>
<path d="M7.29416 7.47665L7.02701 3.53845H8.62988L8.36274 7.47665H7.29416Z" fill="#2760B7"/>
<path d="M7.84193 9.95048C7.3922 9.95048 7.02761 9.58589 7.02761 9.13616C7.02761 8.68642 7.3922 8.32184 7.84193 8.32184C8.29167 8.32184 8.65625 8.68642 8.65625 9.13616C8.65625 9.58589 8.29167 9.95048 7.84193 9.95048Z" fill="#2760B7"/>
</svg>
