<svg width="28" height="25" viewBox="0 0 28 25" fill="none" xmlns="http://www.w3.org/2000/svg">
<path d="M7.91602 5.50748H14.5857V6.99123H7.91602V5.50748Z" fill="#2760B7"/>
<path d="M7.91602 9.54526H14.5857V11.029H7.91602V9.54526Z" fill="#2760B7"/>
<path d="M7.91602 13.5831H14.5857V15.0668H7.91602V13.5831Z" fill="#2760B7"/>
<path d="M4.86359 5.42807C4.47554 5.42807 4.10377 5.76928 4.12172 6.16995C4.13972 6.57189 4.4477 6.91182 4.86359 6.91182C5.25164 6.91182 5.62342 6.57061 5.60547 6.16995C5.58747 5.768 5.27949 5.42807 4.86359 5.42807Z" fill="#2760B7"/>
<path d="M4.86359 9.54526C4.47554 9.54526 4.10377 9.88647 4.12172 10.2871C4.13972 10.6891 4.4477 11.029 4.86359 11.029C5.25164 11.029 5.62342 10.6878 5.60547 10.2871C5.58747 9.88518 5.27949 9.54526 4.86359 9.54526Z" fill="#2760B7"/>
<path d="M4.86359 13.6625C4.47554 13.6625 4.10377 14.0037 4.12172 14.4044C4.13972 14.8063 4.4477 15.1462 4.86359 15.1462C5.25164 15.1462 5.62342 14.805 5.60547 14.4044C5.58747 14.0024 5.27949 13.6625 4.86359 13.6625Z" fill="#2760B7"/>
<path d="M4.86359 17.7798C4.47554 17.7798 4.10377 18.121 4.12172 18.5216C4.13972 18.9236 4.4477 19.2635 4.86359 19.2635C5.25164 19.2635 5.62342 18.9223 5.60547 18.5216C5.58747 18.1197 5.27949 17.7798 4.86359 17.7798Z" fill="#2760B7"/>
<path d="M25.269 15.3569L24.3173 14.2185L23.5638 14.8485C22.5671 13.5643 21.0095 12.7362 19.2618 12.7362C19.1218 12.7362 18.9831 12.7416 18.8458 12.752V0H0V25H18.8458V23.6072C18.9831 23.6176 19.1219 23.6229 19.2618 23.6229C22.2633 23.6229 24.7051 21.181 24.7051 18.1795C24.7051 17.4644 24.5662 16.7811 24.3144 16.1549L25.269 15.3569ZM17.362 23.5163H1.48375V1.48375H17.362V13.0785C15.4617 13.7885 14.061 15.5315 13.8469 17.6208H7.91595V19.1046H13.8974C14.2284 21.0298 15.5739 22.6125 17.3621 23.2806V23.5163H17.362ZM23.2214 18.1796C23.2214 20.3629 21.4451 22.1392 19.2618 22.1392C17.0785 22.1392 15.3022 20.3629 15.3022 18.1796C15.3022 15.9963 17.0785 14.22 19.2618 14.22C20.5529 14.22 21.7015 14.8415 22.4248 15.8007L19.3429 18.3771L17.1237 16.5976L16.1955 17.7551L19.3624 20.2947L23.0923 17.1766C23.1763 17.497 23.2214 17.8331 23.2214 18.1796Z" fill="#2760B7"/>
<path d="M28 3.52941H25.7143V0H22.2857V3.52941H20L24 7.64706L28 3.52941ZM20 8.82353V10H28V8.82353H20Z" fill="#2760B7"/>
</svg>
