<svg width="29" height="30" viewBox="0 0 29 30" fill="none" xmlns="http://www.w3.org/2000/svg">
<path d="M1.18842e-05 11.1282H2.24812V10.2587C1.56516 9.21602 1.16735 7.97055 1.16735 6.63378C1.1673 2.97585 4.1432 0 7.80108 0C11.3124 0 14.1949 2.74246 14.4201 6.19785H16.3309C18.6067 6.19785 20.7518 5.35071 22.4073 3.80643V1.90045H24.1547V7.08044C25.1196 7.32566 25.9976 7.84643 26.6814 8.59236C27.5543 9.54462 28.035 10.7809 28.035 12.0736C28.035 13.3662 27.5543 14.6025 26.6814 15.5548C25.9976 16.3007 25.1196 16.8215 24.1547 17.0667V22.2197H22.4074V20.3155C20.7555 18.7872 18.6213 17.9492 16.3579 17.9492H12.7787V21.3949H11.2407L13.5705 29.8512H7.67089L5.34115 21.3949H3.90422V17.2519L2.24812 15.5958V12.8754H1.18842e-05V11.1282ZM5.32518 16.2018H12.6875V11.1153C11.4741 12.4373 9.73277 13.2674 7.80108 13.2674C6.38612 13.2674 5.07348 12.8219 3.9954 12.0641V14.872L5.32518 16.2018ZM7.80108 1.74728C5.10666 1.74728 2.91464 3.9393 2.91464 6.63372C2.91464 9.32814 5.10666 11.5202 7.80108 11.5202C10.4955 11.5202 12.6875 9.32814 12.6875 6.63372C12.6875 3.9393 10.4955 1.74728 7.80108 1.74728V1.74728ZM25.3934 14.374C25.9702 13.7448 26.2878 12.9278 26.2878 12.0735C26.2878 11.2192 25.9702 10.4022 25.3934 9.77299C25.0455 9.3935 24.6217 9.10233 24.1547 8.91413V15.2328C24.6217 15.0447 25.0455 14.7535 25.3934 14.374ZM22.4074 6.0476C21.2209 6.87364 19.8863 7.44431 18.4719 7.73104V16.4103C19.8857 16.693 21.2201 17.2597 22.4074 18.0809V6.0476ZM16.7245 16.2088V7.93726C16.5936 7.94199 14.4348 7.94513 14.4348 7.94513V16.2018C14.4348 16.2018 16.6026 16.2047 16.7245 16.2088ZM11.0314 19.6475V17.9491H5.6515V19.6475H11.0314ZM9.00183 28.1039H11.2767L9.42837 21.3949H7.15356L9.00183 28.1039Z" fill="#2760B7"/>
<path d="M7.2944 7.47677L7.02726 3.53857H8.63013L8.36298 7.47677H7.2944Z" fill="#2760B7"/>
<path d="M7.84169 9.95042C7.39195 9.95042 7.02737 9.58583 7.02737 9.1361C7.02737 8.68636 7.39195 8.32178 7.84169 8.32178C8.29142 8.32178 8.65601 8.68636 8.65601 9.1361C8.65601 9.58583 8.29142 9.95042 7.84169 9.95042Z" fill="#2760B7"/>
<path d="M22.9999 23.5294H20.7142V20H17.2856V23.5294H14.9999L18.9999 27.6471L22.9999 23.5294ZM14.9999 28.8235V30H22.9999V28.8235H14.9999Z" fill="#2760B7"/>
</svg>
